<svg xmlns="http://www.w3.org/2000/svg" height="60" width="204" viewBox="0 0 12501 3602" shape-rendering="geometricPrecision" text-rendering="geometricPrecision" image-rendering="optimizeQuality" fill-rule="evenodd" clip-rule="evenodd"><path d="M638 152h212c388 0 577 182 577 570 0 385-199 638-638 638v64c14 3 44 6 88 6 493 0 897-269 897-742 0-418-286-644-863-644H0v88c290 37 300 23 300 273v1707c0 249-10 236-300 273v88h938v-88c-290-37-300-24-300-273V152zm9607-108v88c151 0 222 81 323 236l533 826-651 925c-121 175-209 266-377 266v88h684v-88c-87 0-158-44-158-131 0-51 23-112 77-189l517-739 543 769c50 74 71 132 71 172 0 94-98 118-189 118v88h883v-88c-192 0-236-57-411-310l-685-982 574-786c74-101 205-175 320-175V44h-658v88c81 0 162 33 162 111 0 34-13 74-50 125l-449 607-364-574c-41-60-58-114-58-151 0-88 85-118 176-118V44h-813zM7930 1535l415-1130h6l368 1130h-789zM8355 0c-290 769-695 1903-847 2206-54 115-155 176-250 176v91h634v-91c-124 0-188-74-188-172 0-14 3-48 13-78l162-465h884l148 448c17 51 27 88 27 125 0 84-57 142-209 142v91h810v-91c-149 0-206-112-284-307-118-307-472-1377-708-2075h-192zM4960 44v88c290 37 300 23 300 273v1707c0 249-10 236-300 273v88h1707l105-624h-88c-158 371-138 516-641 516-310 0-445-27-445-270V405c0-250 10-236 300-273V44h-938zM2790 1535l415-1130h7l368 1130h-790zM3215 0c-290 769-694 1903-846 2206-54 115-155 176-250 176v91h634v-91c-125 0-189-74-189-172 0-14 4-48 14-78l162-465h884l148 448c17 51 27 88 27 125 0 84-57 142-209 142v91h810v-91c-149 0-206-112-284-307-118-307-472-1377-708-2075h-193zM354 3147c-42-45-98-64-149-64-112 0-205 88-205 208 0 102 77 203 217 203 77 0 117-35 137-58l-43-55c-37 33-64 43-91 43-73 0-135-50-135-132 0-71 44-140 125-140 39 0 60 13 94 43l50-48zm353 92v245h81v-401l-269 250v-241h-80v402l268-255zm520-92c-42-45-98-64-149-64-112 0-205 88-205 208 0 102 77 203 217 203 77 0 117-35 137-58l-43-55c-37 33-64 43-91 43-73 0-135-50-135-132 0-71 44-140 125-140 39 0 61 13 94 43l50-48zm188 337h80v-322h119v-70h-317v70h118v322zm623-115c-25 28-66 55-132 55-78 0-138-56-137-121h331c4-81-25-220-197-220-133 0-220 82-220 199 0 109 65 212 223 212 66 0 130-12 189-81l-57-44zm-259-136c14-51 59-84 118-84 52 0 97 30 106 84h-224zm687 261l143-229 63 219h85l-122-401-169 276-170-276-121 401h85l63-219 143 229zm434-317c42-18 91-24 124-24 88 0 87 60 87 94v20c-39-20-74-26-110-26-128 0-169 75-169 123 0 60 48 130 153 130 50 0 93-15 126-34v24h80v-282c0-79-65-119-158-119-61 0-111 13-149 26l16 68zm17 188c0-28 33-54 95-54 70 0 99 30 99 54 0 19-14 59-103 59-68 0-91-33-91-59zm922-218c-42-45-98-64-149-64-112 0-205 88-205 208 0 102 77 203 217 203 77 0 117-35 137-58l-43-55c-37 33-64 43-91 43-73 0-135-50-135-132 0-71 44-140 125-140 39 0 61 13 94 43l50-48zm75 141c0 91 74 206 221 206 124 0 221-89 221-206 0-118-98-205-221-205-147 0-221 114-221 205zm86 0c0-73 60-136 135-136s135 62 135 136-60 136-135 136c-76 0-135-63-135-136zm496-94c31-25 88-42 124-42 48 0 69 18 69 34 0 14 6 61-91 61h-42v58h43c92 0 108 40 108 60 0 25-13 59-87 59-38 0-84-10-145-43l-43 53c75 52 142 60 189 60 117 0 172-62 172-120 0-18-8-37-19-52-18-22-53-41-85-49 44-17 85-42 85-90 0-52-55-100-156-100-89 0-141 40-166 63l44 48zm421 408v-118h312v118h80v-188h-80v-322h-299v197c0 53-9 92-38 125h-56v188h81zm231-188h-170c26-49 27-91 27-129v-123h143v252zm279-237c42-18 91-24 124-24 88 0 87 60 87 94v20c-39-20-74-26-110-26-128 0-169 75-169 123 0 60 48 130 153 130 50 0 93-15 126-34v24h80v-282c0-79-65-119-158-119-61 0-111 13-149 26l16 68zm17 188c0-28 33-54 95-54 70 0 99 30 99 54 0 19-14 59-103 59-68 0-91-33-91-59zm450-58h195v177h81v-392h-81v145h-195v-145h-81v392h81v-177zm639-68v245h81v-401l-269 250v-241h-80v402l268-255zm487-147h-151c-120 0-153 66-153 119 0 49 32 99 92 111l-114 162h99l108-162h38v162h81v-392zm-81 70v109h-64c-29 0-74-2-74-56 0-48 41-53 67-53h71zm465 145h195v177h80v-392h-80v145h-195v-145h-81v392h81v-177zm361-19c0 91 74 206 221 206 123 0 221-89 221-206 0-118-99-205-221-205-147 0-221 114-221 205zm86 0c0-73 60-136 135-136 74 0 135 62 135 136s-61 136-135 136c-76 0-135-63-135-136zm441-196v392h169c52 0 158-7 158-118 0-53-38-90-87-98 15-6 63-27 63-77 0-38-16-99-144-99h-159zm81 155v-85h69c27 0 68 2 68 41s-35 44-68 44h-69zm0 167v-97h80c27 0 81 1 81 48 0 39-35 49-83 49h-78zm753 70h80v-392h-80v392zm-342-392h-80v392h175c138 0 161-84 161-130 0-57-41-122-151-122h-105v-140zm0 322v-112h95c19 0 76 2 76 53 0 26-13 59-76 59h-95zm679-76l94 146h84l-136-211 118-181h-85l-75 116-74-116h-84l116 181-135 211h84l93-146zm811-191c-42-45-98-64-149-64-112 0-205 88-205 208 0 102 77 203 217 203 77 0 117-35 137-58l-43-55c-37 33-64 43-91 43-73 0-135-50-135-132 0-71 44-140 124-140 40 0 61 13 94 43l51-48zm143 30c42-18 90-24 123-24 88 0 87 60 87 94v20c-38-20-73-26-110-26-128 0-168 75-168 123 0 60 47 130 152 130 50 0 93-15 126-34v24h81v-282c0-79-65-119-159-119-60 0-111 13-148 26l16 68zm17 188c0-28 32-54 95-54 70 0 98 30 98 54 0 19-14 59-103 59-68 0-90-33-90-59zm637-126v245h81v-401l-269 250v-241h-80v402l268-255zm10-364c-16 39-52 65-88 65-37 0-71-27-88-65h-73c19 50 64 119 162 119 97 0 143-73 160-119h-73zm271 609h80v-322h119v-70h-317v70h118v322zm268-196c0 91 75 206 222 206 123 0 221-89 221-206 0-118-99-205-221-205-147 0-222 114-222 205zm86 0c0-73 60-136 136-136 74 0 135 62 135 136s-61 136-135 136c-77 0-136-63-136-136zm442-196v392h169c52 0 158-7 158-118 0-53-38-90-87-98 15-6 62-27 62-77 0-38-15-99-143-99h-159zm80 155v-85h70c27 0 67 2 67 41s-34 44-68 44h-69zm0 167v-97h81c27 0 81 1 81 48 0 39-35 49-83 49h-79z" fill="#242d32" fill-rule="nonzero"/></svg>